<?xml version="1.0" encoding="UTF-8"?>
<svg  id="Capa_2" data-name="Capa 2" class="header-logo-image no-logo-transparent" xmlns="http://www.w3.org/2000/svg" viewBox="0 0 440.01 84.14">
  <defs>
    <style>
      .cls-1 {
        fill-rule: evenodd;
      }

      .cls-1, .cls-2 {
        fill: #95572b;
      }

      .cls-3 {
        letter-spacing: .43em;
      }

      .cls-4 {
        letter-spacing: .45em;
      }

      .cls-5 {
        letter-spacing: .37em;
      }

      .cls-6 {
        fill: #8d5a31;
        font-family: Cupra-Book, Cupra;
        font-size: 41.13px;
      }

      .cls-7 {
        letter-spacing: .45em;
      }
    </style>
  </defs>
  <g id="Capa_1-2" data-name="Capa 1">
    <g>
      <path class="cls-2" d="M77.52,15.52c-5.3,2.59-10.6,5.19-15.89,7.78h0c3.23,1.24,6.46,2.48,9.69,3.72,2,.77,4.37,1.74,5.24,4.1,.9,2.42-.42,4.59-1.59,6.41-1.76,2.76-3.53,5.52-5.29,8.28-6.27,9.82-12.55,19.65-18.85,29.46-.01-3.03-.02-6.06-.02-9.09h0c2.41-7.58,4.76-15.17,7.03-22.79,.64-2.16,1.28-4.33,1.91-6.5,.38-1.31,.13-2.09-1.12-2.71-3.21-1.59-6.42-3.17-9.63-4.75-3.21,1.58-6.42,3.16-9.63,4.75-1.26,.62-1.5,1.4-1.12,2.71,.63,2.17,1.27,4.33,1.91,6.5,2.27,7.62,4.62,15.21,7.03,22.78h0c0,3.04-.01,6.06-.02,9.09-6.3-9.81-12.57-19.63-18.85-29.46-1.76-2.76-3.53-5.52-5.29-8.28-1.17-1.83-2.48-3.99-1.59-6.41,.87-2.36,3.24-3.33,5.24-4.1,3.23-1.24,6.46-2.49,9.69-3.72h0c-5.3-2.59-10.6-5.18-15.89-7.78h0c1.65,2.76,3.3,5.53,4.95,8.3-2.73,1.05-5.46,2.1-8.19,3.15C11.46,17.98,5.72,9,0,0,16.31,5.78,32.6,11.61,48.98,17.2,65.35,11.61,81.65,5.78,97.95,0c-5.72,9-11.46,17.98-17.19,26.96-2.73-1.05-5.46-2.1-8.19-3.15,1.65-2.77,3.3-5.54,4.95-8.3"/>
      <g>
        <path class="cls-1" d="M311.55,8.33v6.67h35.85c.76,0,1.38-.57,1.38-1.27v-4.12c0-.7-.62-1.27-1.38-1.27h-35.85Zm-9.04,22.17l-.03-28.39h46.48c4.32,0,7.82,2.64,7.82,6.64v5.88c0,4.1-2.73,6.88-5.5,6.88l6.19,9.01h-10.12l-5.33-8.66h-30.47v8.66l-9.04-.02Z"/>
        <path class="cls-2" d="M171.88,30.52h-46.48c-4.32,0-7.82-3.24-7.82-7.24V9.35c0-4,3.5-7.24,7.82-7.24h46.48v7.78h-44.92c-.76,0-1.38,.57-1.38,1.27v10.31c0,.7,.62,1.27,1.38,1.27h44.92v7.78ZM233.55,2.11V23.28c0,4-3.5,7.24-7.82,7.24h-38.73c-4.32,0-7.82-3.24-7.82-7.24V2.11h9.34V21.47c0,.7,.62,1.27,1.38,1.27h32.93c.76,0,1.38-.57,1.38-1.27V2.11h9.34Zm176.22,12.87v-6.65h-35.49c-.76,0-1.38,.57-1.38,1.27v5.37c0-.09,24.2-.03,36.86,0Zm8.79,15.54h-8.79v-8.66h-36.79v8.66h-8.79l-.08-21.17c0-4,3.5-7.24,7.82-7.24h46.48c.08,.06,.13,.03,.13,0V30.52ZM249.57,14.99h36.27c.76,0,1.38-.57,1.38-1.27v-4.12c0-.7-.62-1.27-1.38-1.27h-36.27v6.67Zm37.83-12.88c5.74,0,7.82,2.64,7.82,6.64v5.88c0,4-1.76,7.24-7.82,7.24h-37.83v8.66h-8.79V2.11h46.62Z"/>
      </g>
      <text class="cls-6" transform="translate(117.39 75.09)"><tspan class="cls-4" x="0" y="0">PIT </tspan><tspan class="cls-3" x="144.57" y="0">S</tspan><tspan class="cls-5" x="184.75" y="0">T</tspan><tspan class="cls-7" x="225.93" y="0">OP</tspan></text>
    </g>
  </g>
</svg>